bw_sq_120_02
version=1
nRows=16
nColumns=46
inDegrees=yes
endheader
time	ground_force3_vx	ground_force3_vy	ground_force3_vz	ground_force3_px	ground_force3_py	ground_force3_pz	ground_torque3_x	ground_torque3_y	ground_torque3_z	ground_force5_vx	ground_force5_vy	ground_force5_vz	ground_force5_px	ground_force5_py	ground_force5_pz	ground_torque5_x	ground_torque5_y	ground_torque5_z	ground_force4_vx	ground_force4_vy	ground_force4_vz	ground_force4_px	ground_force4_py	ground_force4_pz	ground_torque4_x	ground_torque4_y	ground_torque4_z	ground_force1_vx	ground_force1_vy	ground_force1_vz	ground_force1_px	ground_force1_py	ground_force1_pz	ground_torque1_x	ground_torque1_y	ground_torque1_z	ground_force2_vx	ground_force2_vy	ground_force2_vz	ground_force2_px	ground_force2_py	ground_force2_pz	ground_torque2_x	ground_torque2_y	ground_torque2_z
0.983000	-0.000000	-0.000000	0.000000	0.200000	0.000000	-0.300000	0.000000	0.000000	-0.000000	-7.160097	319.700531	54.265102	0.238603	0.000000	-1.433931	0.000024	-1.518266	0.000003	4.954763	261.664246	-52.925797	0.210113	0.000000	-0.948550	0.000016	1.986948	0.000001	-0.000000	-0.000000	0.000000	0.200000	0.000000	0.904000	0.000000	0.000000	-0.000000	-0.000000	-0.000000	0.000000	0.400000	0.000000	0.302000	0.000000	0.000000	-0.000000	
0.984000	-0.000000	-0.000000	0.000000	0.200000	0.000000	-0.300000	0.000000	0.000000	-0.000000	-7.159587	319.060760	54.106262	0.237883	0.000000	-1.432616	0.000010	-1.334861	0.000004	6.247738	263.902161	-52.923756	0.210730	0.000000	-0.946983	0.000017	1.982979	0.000002	-0.000000	-0.000000	0.000000	0.200000	0.000000	0.904000	0.000000	0.000000	-0.000000	-0.000000	-0.000000	0.000000	0.400000	0.000000	0.302000	0.000000	0.000000	-0.000000	
0.985000	-0.000000	-0.000000	0.000000	0.200000	0.000000	-0.300000	0.000000	0.000000	-0.000000	-6.999903	320.016449	53.462769	0.237944	0.000000	-1.433125	0.000008	-1.215063	0.000005	5.275305	264.864868	-53.086330	0.210054	0.000000	-0.948011	0.000015	1.863487	0.000004	-0.000000	-0.000000	0.000000	0.200000	0.000000	0.904000	0.000000	0.000000	-0.000000	-0.000000	-0.000000	0.000000	0.400000	0.000000	0.302000	0.000000	0.000000	-0.000000	
0.986000	-0.000000	-0.000000	0.000000	0.200000	0.000000	-0.300000	0.000000	0.000000	-0.000000	-7.643226	319.699890	54.426994	0.238432	0.000000	-1.432360	0.000041	-1.393745	0.000003	4.953219	263.903870	-53.087349	0.211081	0.000000	-0.946538	0.000023	1.965882	0.000003	-0.000000	-0.000000	0.000000	0.200000	0.000000	0.904000	0.000000	0.000000	-0.000000	-0.000000	-0.000000	0.000000	0.400000	0.000000	0.302000	0.000000	0.000000	-0.000000	
0.987000	-0.000000	-0.000000	0.000000	0.200000	0.000000	-0.300000	0.000000	0.000000	-0.000000	-6.516773	319.380310	54.266792	0.238294	0.000000	-1.432495	0.000048	-1.208815	0.000003	4.628045	267.424683	-53.568954	0.210729	0.000000	-0.946265	0.000009	1.960863	0.000000	-0.000000	-0.000000	0.000000	0.200000	0.000000	0.904000	0.000000	0.000000	-0.000000	-0.000000	-0.000000	0.000000	0.400000	0.000000	0.302000	0.000000	0.000000	-0.000000	
0.988000	-0.000000	-0.000000	0.000000	0.200000	0.000000	-0.300000	0.000000	0.000000	-0.000000	-6.355052	320.974731	54.265778	0.237610	0.000000	-1.433778	0.000034	-1.364301	0.000001	4.624956	264.865204	-53.408417	0.210236	0.000000	-0.947138	0.000008	1.780195	0.000004	-0.000000	-0.000000	0.000000	0.200000	0.000000	0.904000	0.000000	0.000000	-0.000000	-0.000000	-0.000000	0.000000	0.400000	0.000000	0.302000	0.000000	0.000000	-0.000000	
0.989000	-0.000000	-0.000000	0.000000	0.200000	0.000000	-0.300000	0.000000	0.000000	-0.000000	-6.676968	321.295319	54.587189	0.238132	0.000000	-1.434021	0.000037	-1.425701	0.000003	4.465458	265.183411	-53.085312	0.210334	0.000000	-0.947720	0.000021	1.922392	0.000004	-0.000000	-0.000000	0.000000	0.200000	0.000000	0.904000	0.000000	0.000000	-0.000000	-0.000000	-0.000000	0.000000	0.400000	0.000000	0.302000	0.000000	0.000000	-0.000000	
0.990000	-0.000000	-0.000000	0.000000	0.200000	0.000000	-0.300000	0.000000	0.000000	-0.000000	-6.516264	320.975433	53.945045	0.238997	0.000000	-1.433519	0.000011	-1.330709	0.000004	3.818199	268.056030	-53.729485	0.211694	0.000000	-0.948012	0.000007	2.029769	0.000004	-0.000000	-0.000000	0.000000	0.200000	0.000000	0.904000	0.000000	0.000000	-0.000000	-0.000000	-0.000000	0.000000	0.400000	0.000000	0.302000	0.000000	0.000000	-0.000000	
0.991000	-0.000000	-0.000000	0.000000	0.200000	0.000000	-0.300000	0.000000	0.000000	-0.000000	-6.677477	319.704529	54.266121	0.239372	0.000000	-1.433588	0.000013	-1.380757	0.000006	4.950130	267.109161	-53.407398	0.210365	0.000000	-0.946060	0.000015	1.881451	0.000005	-0.000000	-0.000000	0.000000	0.200000	0.000000	0.904000	0.000000	0.000000	-0.000000	-0.000000	-0.000000	0.000000	0.400000	0.000000	0.302000	0.000000	0.000000	-0.000000	
0.992000	-0.000000	-0.000000	0.000000	0.200000	0.000000	-0.300000	0.000000	0.000000	-0.000000	-7.159587	321.295319	54.909271	0.238414	0.000000	-1.432077	0.000021	-1.456041	0.000004	4.304415	268.383026	-53.408417	0.210479	0.000000	-0.946768	0.000006	1.938391	0.000006	-0.000000	-0.000000	0.000000	0.200000	0.000000	0.904000	0.000000	0.000000	-0.000000	-0.000000	-0.000000	0.000000	0.400000	0.000000	0.302000	0.000000	0.000000	-0.000000	
0.993000	-0.000000	-0.000000	0.000000	0.200000	0.000000	-0.300000	0.000000	0.000000	-0.000000	-7.160606	320.977417	55.231018	0.238576	0.000000	-1.432157	0.000008	-1.309463	0.000005	4.629589	268.381012	-53.567932	0.211410	0.000000	-0.946784	0.000007	2.098250	0.000003	-0.000000	-0.000000	0.000000	0.200000	0.000000	0.904000	0.000000	0.000000	-0.000000	-0.000000	-0.000000	0.000000	0.400000	0.000000	0.302000	0.000000	0.000000	-0.000000	
0.994000	-0.000000	-0.000000	0.000000	0.200000	0.000000	-0.300000	0.000000	0.000000	-0.000000	-6.838690	321.294647	54.748398	0.238488	0.000000	-1.432488	0.000023	-1.318681	0.000004	4.467002	268.384033	-53.407398	0.210799	0.000000	-0.946761	0.000006	2.019387	0.000003	-0.000000	-0.000000	0.000000	0.200000	0.000000	0.904000	0.000000	0.000000	-0.000000	-0.000000	-0.000000	0.000000	0.400000	0.000000	0.302000	0.000000	0.000000	-0.000000	
0.995000	-0.000000	-0.000000	0.000000	0.200000	0.000000	-0.300000	0.000000	0.000000	-0.000000	-6.839199	321.618866	54.587524	0.238871	0.000000	-1.433559	0.000054	-1.281000	0.000003	3.657156	269.025146	-54.536236	0.210622	0.000000	-0.946852	0.000019	1.966279	0.000002	-0.000000	-0.000000	0.000000	0.200000	0.000000	0.904000	0.000000	0.000000	-0.000000	-0.000000	-0.000000	0.000000	0.400000	0.000000	0.302000	0.000000	0.000000	-0.000000	
0.996000	-0.000000	-0.000000	0.000000	0.200000	0.000000	-0.300000	0.000000	0.000000	-0.000000	-7.482522	321.935059	54.908936	0.239319	0.000000	-1.433418	0.000010	-1.428620	0.000003	4.307504	269.666962	-53.730507	0.210429	0.000000	-0.946605	0.000007	2.068992	0.000001	-0.000000	-0.000000	0.000000	0.200000	0.000000	0.904000	0.000000	0.000000	-0.000000	-0.000000	-0.000000	0.000000	0.400000	0.000000	0.302000	0.000000	0.000000	-0.000000	
0.997000	-0.000000	-0.000000	0.000000	0.200000	0.000000	-0.300000	0.000000	0.000000	-0.000000	-7.321310	322.895447	55.069130	0.239320	0.000000	-1.433037	0.000034	-1.516433	0.000005	4.631134	268.699219	-54.534195	0.211531	0.000000	-0.947584	0.000015	2.176474	0.000005	-0.000000	-0.000000	0.000000	0.200000	0.000000	0.904000	0.000000	0.000000	-0.000000	-0.000000	-0.000000	0.000000	0.400000	0.000000	0.302000	0.000000	0.000000	-0.000000	
0.998000	-0.000000	-0.000000	0.000000	0.200000	0.000000	-0.300000	0.000000	0.000000	-0.000000	-7.161116	322.894073	54.105919	0.239401	0.000000	-1.433943	0.000013	-1.252992	0.000003	4.141828	269.340668	-54.854248	0.211407	0.000000	-0.947986	0.000014	2.108906	0.000006	-0.000000	-0.000000	0.000000	0.200000	0.000000	0.904000	0.000000	0.000000	-0.000000	-0.000000	-0.000000	0.000000	0.400000	0.000000	0.302000	0.000000	0.000000	-0.000000	
